<svg width="22" height="22" viewBox="0 0 22 22" fill="none" xmlns="http://www.w3.org/2000/svg">
<path d="M10.9652 16.4872H17.2077C17.4508 16.5008 17.6933 16.4519 17.9122 16.3452C18.131 16.2385 18.3189 16.0775 18.4578 15.8776C18.5968 15.6777 18.6823 15.4455 18.706 15.2032C18.7298 14.9609 18.6911 14.7165 18.5937 14.4934C18.2637 13.4961 16.9483 12.2998 16.9483 11.1228C16.9483 8.51034 16.9483 7.82284 15.6613 6.28651C15.2448 5.792 14.7284 5.39119 14.146 5.11042L13.4283 4.76209C13.3078 4.6894 13.2039 4.59231 13.1233 4.47706C13.0426 4.36182 12.9869 4.23097 12.9598 4.09292C12.8881 3.62763 12.6421 3.20704 12.2717 2.91646C11.9012 2.62588 11.4342 2.48707 10.9652 2.52817C10.5047 2.50052 10.0504 2.64552 9.69102 2.93486C9.33167 3.2242 9.09309 3.6371 9.02185 4.09292C8.98954 4.23573 8.92623 4.36969 8.83642 4.48533C8.7466 4.60096 8.63247 4.69545 8.5021 4.76209L7.78435 5.11042C7.2023 5.3913 6.68623 5.7921 6.27002 6.28651C4.98393 7.82284 4.98393 8.51034 4.98393 11.1228C4.98393 12.2998 3.7281 13.376 3.3981 14.4329C3.19918 15.0718 3.08918 16.4872 4.75477 16.4872H10.9652Z" stroke="#B3B4B3" stroke-width="1.5" stroke-linecap="round" stroke-linejoin="round"/>
<path d="M13.9563 16.4872C13.9641 16.8821 13.8921 17.2746 13.7446 17.641C13.5971 18.0075 13.377 18.3404 13.0977 18.6197C12.8184 18.899 12.4855 19.1191 12.1191 19.2666C11.7526 19.4141 11.3602 19.4861 10.9652 19.4783C10.5702 19.4866 10.1775 19.415 9.81087 19.2676C9.44424 19.1203 9.11122 18.9002 8.83186 18.6208C8.5525 18.3413 8.33257 18.0083 8.18532 17.6416C8.03807 17.2749 7.96654 16.8822 7.97504 16.4872" stroke="#B3B4B3" stroke-width="1.5" stroke-linecap="round" stroke-linejoin="round"/>
</svg>
